<?xml version="1.0" standalone="no"?>
<!DOCTYPE svg PUBLIC "-//W3C//DTD SVG 20010904//EN"
 "http://www.w3.org/TR/2001/REC-SVG-20010904/DTD/svg10.dtd">
<svg version="1.0" xmlns="http://www.w3.org/2000/svg"
 width="93.000000pt" height="93.000000pt" viewBox="0 0 93.000000 93.000000"
 preserveAspectRatio="xMidYMid meet">

<g transform="translate(0.000000,93.000000) scale(0.100000,-0.100000)"
fill="#000000" stroke="none">
<path d="M408 746 c-53 -19 -83 -40 -111 -78 -32 -43 -44 -85 -51 -180 -11
-153 54 -266 173 -298 95 -25 211 39 246 138 10 26 22 57 27 68 16 35 6 59
-27 62 -17 2 -90 1 -163 -3 l-133 -7 3 -27 c3 -22 8 -26 41 -29 l37 -3 0 -70
c0 -63 -2 -69 -21 -69 -30 0 -74 28 -93 60 -12 22 -16 55 -16 152 0 138 11
171 72 208 84 51 204 -5 222 -104 8 -41 18 -50 47 -41 18 6 21 13 16 47 -17
124 -158 216 -269 174z m156 -388 c8 -13 8 -23 -1 -37 -6 -10 -9 -28 -6 -40 4
-17 1 -21 -21 -21 -21 0 -26 5 -26 24 0 14 -4 28 -10 31 -14 9 -13 38 2 53 17
17 48 11 62 -10z"/>
</g>
</svg>
